<svg xmlns="http://www.w3.org/2000/svg" viewBox="0 0 512 512">
  <defs>
    <linearGradient id="bg" x1="0%" y1="0%" x2="100%" y2="100%">
      <stop offset="0%" style="stop-color:#059669"/>
      <stop offset="100%" style="stop-color:#10b981"/>
    </linearGradient>
  </defs>
  <rect width="512" height="512" rx="96" fill="url(#bg)"/>
  <g transform="translate(96, 96)">
    <!-- Soccer ball pattern -->
    <circle cx="160" cy="160" r="140" fill="white" stroke="#0f172a" stroke-width="8"/>
    <!-- Pentagon pattern -->
    <path d="M160 50 L200 100 L185 155 L135 155 L120 100 Z" fill="#0f172a"/>
    <path d="M270 130 L250 185 L195 195 L170 150 L210 105 Z" fill="#0f172a"/>
    <path d="M250 235 L195 245 L160 200 L175 145 L230 155 Z" fill="#0f172a"/>
    <path d="M160 270 L120 220 L135 165 L185 165 L200 220 Z" fill="#0f172a"/>
    <path d="M70 235 L90 180 L145 170 L170 215 L130 245 Z" fill="#0f172a"/>
    <path d="M50 130 L110 105 L150 150 L125 195 L70 185 Z" fill="#0f172a"/>
  </g>
</svg>
